<svg width="40.000000" height="40.000000" viewBox="0 0 40 40" fill="none" xmlns="http://www.w3.org/2000/svg" xmlns:xlink="http://www.w3.org/1999/xlink">
	<desc>
			Created with Pixso.
	</desc>
	<defs>
		<clipPath id="clip133_7681">
			<rect id="huge-icon/health/outline/health care" width="40.000000" height="40.000000" fill="white" fill-opacity="0"/>
		</clipPath>
	</defs>
	<g clip-path="url(#clip133_7681)">
		<path id="Vector" d="M27.4287 4.9082C29.542 2.80664 32.9668 2.80664 35.0801 4.9082C37.1924 7.00977 37.1924 10.417 35.0801 12.5186L28.1943 19.3682C27.3486 20.209 25.9795 20.209 25.1338 19.3682L18.248 12.5186C16.1357 10.417 16.1357 7.00977 18.248 4.9082C20.3613 2.80664 23.7861 2.80664 25.8994 4.9082L26.6641 5.66895L27.4287 4.9082Z" stroke="#78DCCD" stroke-opacity="1.000000" stroke-width="2.500000" stroke-linejoin="round"/>
		<path id="Vector 2068" d="M3.33594 16.668L6.66895 16.668L18.1836 21.7061C19.1904 22.1465 19.6533 23.3164 19.2207 24.3262L18.29 26.4961C17.8555 27.5117 16.6797 27.9814 15.6641 27.5469L11.6689 25.835" stroke="#131923" stroke-opacity="1.000000" stroke-width="2.500000" stroke-linejoin="round" stroke-linecap="round"/>
		<path id="Vector 2069" d="M18.8945 25.5498L24.2949 28.25Q25.2979 28.751 26.4189 28.751L31.3359 28.751Q31.9961 28.751 32.6016 29.0068Q33.1846 29.2539 33.6338 29.7031Q34.083 30.1523 34.3301 30.7363Q34.5859 31.3408 34.5859 32.001L34.5859 34.668Q34.5859 35.3281 34.3301 35.9336Q34.083 36.5166 33.6338 36.9658Q33.1846 37.415 32.6016 37.6621Q31.9961 37.918 31.3359 37.918L15.2246 37.918Q14.1475 37.918 13.0996 37.6709Q12.0508 37.4229 11.0879 36.9414L2.77734 32.7861L3.89453 30.5498L12.2061 34.7051Q13.6309 35.418 15.2246 35.418L31.3359 35.418Q31.6465 35.418 31.8662 35.1982Q32.0859 34.9785 32.0859 34.668L32.0859 32.001Q32.0859 31.6904 31.8662 31.4707Q31.6465 31.251 31.3359 31.251L26.4189 31.251Q25.5752 31.251 24.7529 31.0576Q23.9316 30.8633 23.1768 30.4863L17.7773 27.7861L18.8945 25.5498ZM2.80371 32.7773L2.77734 32.7861C2.15039 32.4727 1.90527 31.7354 2.21777 31.1094C2.53125 30.4824 3.26855 30.2373 3.89453 30.5498L3.9043 30.5771L2.80371 32.7773ZM17.7949 27.7949L16.6592 27.2266L17.7773 24.9912L18.9131 25.5586L17.7949 27.7949Z" fill="#131923" fill-opacity="1.000000" fill-rule="evenodd"/>
	</g>
</svg>
