<svg width="40" height="40" viewBox="0 0 40 40" fill="none" xmlns="http://www.w3.org/2000/svg">
<path d="M13 36H24.5114L25 29" stroke="#131923" stroke-width="2.5" stroke-miterlimit="10" stroke-linecap="round" stroke-linejoin="round"/>
<path d="M23.1559 4C23.1559 4 23.9514 6.42949 25.4426 9.41569C26.3068 11.1463 27.7011 12.5829 29.4513 13.4684C32.1696 14.8438 34.0223 17.6246 34.0014 20.8264C33.9642 26.5022 28.0967 30.4988 22.6016 28.4605" stroke="#131923" stroke-width="2.5" stroke-miterlimit="10" stroke-linecap="round" stroke-linejoin="round"/>
<path d="M10.5025 4C5.42776 6.5 5.40151 11.5 5.40201 16C5.40252 20.4999 5.27048 25.2129 5.40268 27.023C5.53489 28.8332 6.00246 34 6.6172 36H13.2422C13.2422 36 13.5037 34.5 14.0036 31.5C14.5035 28.5 14.5772 26.5 14.5772 21.5" stroke="#131923" stroke-width="2.5" stroke-miterlimit="10" stroke-linecap="round" stroke-linejoin="round"/>
<path d="M29.9984 20.8639C29.9369 23.1032 28.1204 24.9301 25.8875 24.998C25.0957 25.0221 24.3506 24.8285 23.7076 24.4726C22.8985 24.0247 22.7554 22.9092 23.4231 22.2683C24.4747 21.2589 25.5049 19.8608 26.0748 17.9827C26.3448 17.093 27.407 16.7126 28.1694 17.242C29.3059 18.0312 30.0395 19.3627 29.9984 20.8639Z" stroke="#78DCCD" stroke-width="2.5" stroke-miterlimit="10" stroke-linecap="round" stroke-linejoin="round"/>
</svg>
