<svg width="40.000000" height="40.000000" viewBox="0 0 40 40" fill="none" xmlns="http://www.w3.org/2000/svg" xmlns:xlink="http://www.w3.org/1999/xlink">
	<desc>
			Created with Pixso.
	</desc>
	<defs>
		<clipPath id="clip133_7670">
			<rect id="huge-icon/education/outline/e-learning" width="40.000000" height="40.000000" fill="white" fill-opacity="0"/>
		</clipPath>
	</defs>
	<g clip-path="url(#clip133_7670)">
		<path id="Vector" d="M35 28.332C35 30.1729 33.5078 31.665 31.667 31.665L20 31.665L8.33301 31.665C6.49219 31.665 5 30.1729 5 28.332L5 11.665C5 9.82422 6.49219 8.33203 8.33301 8.33203L13.333 8.33203L31.667 8.33203C33.5078 8.33203 35 9.82422 35 11.665L35 28.332ZM20 31.665L20 36.665M25 36.665L20 36.665L15 36.665" stroke="#28303F" stroke-opacity="1.000000" stroke-width="2.500000" stroke-linecap="round"/>
		<path id="Vector" d="M15 20.333L17.9209 22.6709C18.6182 23.2275 19.6299 23.1377 20.2168 22.4668L25 17" stroke="#78DCCD" stroke-opacity="1.000000" stroke-width="2.500000" stroke-linecap="round"/>
	</g>
</svg>
