<svg width="40.000000" height="40.000000" viewBox="0 0 40 40" fill="none" xmlns="http://www.w3.org/2000/svg" xmlns:xlink="http://www.w3.org/1999/xlink">
	<desc>
			Created with Pixso.
	</desc>
	<defs>
		<clipPath id="clip133_7662">
			<rect id="huge-icon/health/outline/stethoscope" width="40.000000" height="40.000000" fill="white" fill-opacity="0"/>
		</clipPath>
	</defs>
	<g clip-path="url(#clip133_7662)">
		<path id="Ellipse 1244" d="M33.333 29.999C31.4922 29.999 30 28.5059 30 26.665C30 24.8242 31.4922 23.332 33.333 23.332C35.1738 23.332 36.667 24.8242 36.667 26.665C36.667 28.5059 35.1738 29.999 33.333 29.999Z" stroke="#78DCCD" stroke-opacity="1.000000" stroke-width="2.500000"/>
		<path id="Vector 3096" d="M6.66895 5C4.82812 5 3.33594 6.49219 3.33594 8.33301L3.33594 13.333C3.33594 17.9355 7.06738 21.667 11.6689 21.667C16.2715 21.667 20.0029 17.9355 20.0029 13.333L20.0029 8.33301C20.0029 6.49219 18.5098 5 16.6689 5" stroke="#131923" stroke-opacity="1.000000" stroke-width="2.500000" stroke-linejoin="round" stroke-linecap="round"/>
		<path id="Vector 3099" d="M11.6641 21.668L11.6641 30.418C11.6641 33.8701 14.4619 36.668 17.9141 36.668C21.3662 36.668 24.1641 33.8701 24.1641 30.418L24.1641 21.251C24.1641 18.7197 26.2158 16.668 28.7471 16.668C31.2783 16.668 33.3311 18.7197 33.3311 21.251L33.3311 23.335" stroke="#131923" stroke-opacity="1.000000" stroke-width="2.500000" stroke-linejoin="round" stroke-linecap="round"/>
		<path id="Vector 3097" d="M16.6641 3.33203L16.6641 6.66504" stroke="#78DCCD" stroke-opacity="1.000000" stroke-width="2.500000" stroke-linejoin="round" stroke-linecap="round"/>
		<path id="Vector 3098" d="M6.66406 3.33203L6.66406 6.66504" stroke="#78DCCD" stroke-opacity="1.000000" stroke-width="2.500000" stroke-linejoin="round" stroke-linecap="round"/>
	</g>
</svg>
