<svg width="40.000000" height="40.000000" viewBox="0 0 40 40" fill="none" xmlns="http://www.w3.org/2000/svg" xmlns:xlink="http://www.w3.org/1999/xlink">
	<desc>
			Created with Pixso.
	</desc>
	<defs>
		<clipPath id="clip133_7692">
			<rect id="surgical-instrument 1" width="40.000000" height="40.000000" fill="white" fill-opacity="0"/>
		</clipPath>
	</defs>
	<rect id="surgical-instrument 1" width="40.000000" height="40.000000" fill="#FFFFFF" fill-opacity="0"/>
	<g clip-path="url(#clip133_7692)">
		<path id="Vector" d="M18.6328 27.5752L16.834 18.5088C16.7891 18.2783 16.6797 18.0654 16.5186 17.8936L15.4551 16.7686L16.2773 15.8936C16.4209 15.7432 16.5234 15.5586 16.5781 15.3574L19.6094 4.0752C19.6562 3.91504 19.6719 3.74707 19.6533 3.58105C19.6348 3.41504 19.583 3.25488 19.502 3.1084C19.4209 2.96289 19.3105 2.83496 19.1787 2.73242C19.0469 2.62988 18.8965 2.55469 18.7344 2.51172C18.5732 2.46777 18.4053 2.45801 18.2393 2.48047C18.0742 2.50293 17.915 2.55957 17.7715 2.64453C17.6279 2.72949 17.5029 2.84277 17.4043 2.97754C17.3057 3.1123 17.2344 3.26562 17.1953 3.42773L14.25 14.4092L13.7393 14.9502L13.2275 14.4092L10.2773 3.42773C10.1914 3.10645 9.98242 2.83301 9.69434 2.66699C9.40723 2.50098 9.06543 2.45605 8.74414 2.54199C8.42383 2.62793 8.15039 2.83789 7.98438 3.125C7.81836 3.41309 7.77344 3.75391 7.85938 4.0752L10.8848 15.3623C10.9395 15.5635 11.042 15.748 11.1855 15.8984L12.0078 16.7734L10.9443 17.8984C10.7832 18.0703 10.6738 18.2832 10.6289 18.5137L8.83496 27.5752C9.3916 27.6973 10.6396 28.0713 11.1816 28.5859L13.0156 19.3477L13.7344 18.5879L14.4531 19.3477L16.2861 28.5859C16.3594 28.501 17.5908 27.7373 18.6328 27.5752Z" fill="#131923" fill-opacity="1.000000" fill-rule="nonzero"/>
		<path id="Vector" d="M29.6094 2.5C29.2783 2.5 28.96 2.63184 28.7256 2.86621C28.4912 3.10059 28.3594 3.41895 28.3594 3.75L28.3594 20L30.8594 20L33.3594 20L35.8594 20C36.1904 20 36.5088 19.8682 36.7432 19.6338C36.9775 19.3994 37.1094 19.0811 37.1094 18.75L37.1094 10C37.1074 8.01172 36.3164 6.10547 34.9102 4.69922C33.5039 3.29297 31.5977 2.50195 29.6094 2.5ZM30.8594 17.5L34.6094 17.5L34.6094 10C34.6084 8.8916 34.2393 7.81543 33.5605 6.93945C32.8818 6.0625 31.9316 5.43652 30.8594 5.15723L30.8594 17.5Z" fill="#78DCCD" fill-opacity="1.000000" fill-rule="evenodd"/>
		<path id="Vector" d="M28.3594 33.75C28.3594 34.7441 28.7549 35.6982 29.458 36.4014C30.1611 37.1045 31.1152 37.5 32.1094 37.5C33.1035 37.5 34.0576 37.1045 34.7607 36.4014C35.4639 35.6982 35.8594 34.7441 35.8594 33.75L35.8594 20L33.3594 20L33.3594 22.5L33.3594 33.75C33.3594 34.0811 33.2275 34.3994 32.9932 34.6338C32.7588 34.8682 32.4404 35 32.1094 35C31.7783 35 31.46 34.8682 31.2256 34.6338C30.9912 34.3994 30.8594 34.0811 30.8594 33.75L30.8594 22.5L30.8594 20L28.3594 20L28.3594 33.75Z" fill="#000000" fill-opacity="1.000000" fill-rule="nonzero"/>
		<path id="Vector" d="M8.11719 27.5C8.36035 27.5068 8.60352 27.5312 8.84375 27.5742C9.4043 27.7021 10.6582 28.083 11.1895 28.585C12.1309 29.3271 12.7783 30.3789 13.0166 31.5537C13.2549 32.7285 13.0684 33.9492 12.4902 34.999C11.9121 36.0488 10.9795 36.8594 9.85938 37.2861C8.73926 37.7129 7.50488 37.7275 6.37402 37.3291C5.24414 36.9297 4.29199 36.1426 3.68848 35.1074C3.08496 34.0713 2.86816 32.8555 3.07812 31.6758C3.28711 30.4951 3.9082 29.4277 4.83105 28.6631C5.75391 27.8984 6.91895 27.4863 8.11719 27.5ZM18.6406 27.5742C18.8809 27.5312 19.124 27.5068 19.3672 27.5C20.543 27.4941 21.6826 27.9033 22.585 28.6582C23.4863 29.4121 24.0918 30.4609 24.2939 31.6191C24.4961 32.7773 24.2812 33.9697 23.6875 34.9844C23.0938 35.999 22.1592 36.7705 21.0508 37.1611C19.9424 37.5527 18.7314 37.5391 17.6318 37.1221C16.5332 36.7051 15.6172 35.9121 15.0469 34.8848C14.4766 33.8564 14.2891 32.6592 14.5176 31.5068C14.7461 30.3535 15.376 29.3184 16.2949 28.585C16.6963 28.2676 17.7295 27.7354 18.6406 27.5742ZM8.11719 35C7.62305 35 7.13965 34.8535 6.72852 34.5791C6.31738 34.3047 5.99707 33.9141 5.80762 33.457C5.61816 33 5.56836 32.498 5.66504 32.0127C5.76172 31.5273 6 31.082 6.34961 30.7324C6.69922 30.3828 7.14453 30.1445 7.62988 30.0488C8.11426 29.9521 8.61719 30.001 9.07422 30.1904C9.53027 30.3799 9.9209 30.7002 10.1963 31.1113C10.4707 31.5225 10.6172 32.0059 10.6172 32.5C10.6172 33.1631 10.3535 33.7988 9.88477 34.2686C9.41602 34.7373 8.78027 35 8.11719 35ZM19.3672 35C18.873 35 18.3896 34.8535 17.9785 34.5791C17.5674 34.3047 17.2471 33.9141 17.0576 33.457C16.8682 33 16.8184 32.498 16.915 32.0127C17.0117 31.5273 17.25 31.082 17.5996 30.7324C17.9492 30.3828 18.3945 30.1445 18.8799 30.0488C19.3643 29.9521 19.8672 30.001 20.3242 30.1904C20.7803 30.3799 21.1709 30.7002 21.4463 31.1113C21.7207 31.5225 21.8672 32.0059 21.8672 32.5C21.8672 33.1631 21.6035 33.7988 21.1348 34.2686C20.666 34.7373 20.0303 35 19.3672 35Z" fill="#78DCCD" fill-opacity="1.000000" fill-rule="evenodd"/>
	</g>
</svg>
