<svg width="40" height="40" viewBox="0 0 40 40" fill="none" xmlns="http://www.w3.org/2000/svg">
<path d="M20.7783 15.6919C20.3779 16.1923 19.6169 16.1923 19.2165 15.6919L14.6305 9.95933C14.1067 9.30457 14.5728 8.33463 15.4114 8.33463L24.5834 8.33464C25.4219 8.33464 25.8881 9.30457 25.3643 9.95933L20.7783 15.6919Z" stroke="#78DCCD" stroke-width="2.5"/>
<path d="M33.0641 31.868C34.5473 33.8457 33.1362 36.668 30.6641 36.668L9.33073 36.668C6.85859 36.668 5.44745 33.8457 6.93073 31.868L14.4807 21.8013C15.2807 20.7346 15.2807 19.268 14.4807 18.2013L6.93073 8.13464C5.44745 6.15693 6.8586 3.33463 9.33073 3.33463L30.6641 3.33464C33.1362 3.33464 34.5473 6.15693 33.0641 8.13464L25.5141 18.2013C24.7141 19.268 24.7141 20.7346 25.5141 21.8013L33.0641 31.868Z" stroke="#131923" stroke-width="2.5"/>
</svg>
