<svg width="36" height="36" viewBox="0 0 36 36" fill="none" xmlns="http://www.w3.org/2000/svg">
<path fill-rule="evenodd" clip-rule="evenodd" d="M12.5987 1.1285C12.712 0.446833 13.357 -0.0131672 14.037 0.100166C14.7187 0.213499 15.1787 0.858499 15.0654 1.5385L14.642 4.07683C14.307 6.0785 12.697 7.62183 10.6837 7.87017C8.52036 8.15517 5.18869 9.07517 2.10202 11.4852C1.55702 11.9102 0.772022 11.8135 0.347022 11.2702C-0.0779781 10.7252 0.0186884 9.94017 0.562022 9.51517C4.08536 6.76517 7.88869 5.71683 10.357 5.39183C10.362 5.39017 10.367 5.39017 10.3704 5.39017C11.2887 5.2785 12.0237 4.57683 12.177 3.6635L12.5987 1.1285Z" fill="#131923"/>
<path fill-rule="evenodd" clip-rule="evenodd" d="M20.9312 1.5385C20.8179 0.858499 21.2779 0.213499 21.9596 0.100166C22.6396 -0.0131672 23.2846 0.446833 23.3979 1.1285L23.8196 3.6635C23.9729 4.57683 24.7079 5.2785 25.6262 5.39017C25.6296 5.39017 25.6346 5.39017 25.6396 5.39183C28.1079 5.71683 31.9112 6.76517 35.4346 9.51517C35.9779 9.94017 36.0746 10.7252 35.6496 11.2702C35.2246 11.8135 34.4396 11.9102 33.8946 11.4852C30.8079 9.07517 27.4762 8.15517 25.3129 7.87017C23.2996 7.62183 21.6896 6.0785 21.3546 4.07683L20.9312 1.5385Z" fill="#131923"/>
<path fill-rule="evenodd" clip-rule="evenodd" d="M16.0637 18.1719C15.737 17.5636 15.967 16.8052 16.5754 16.4802C17.1837 16.1552 17.942 16.3852 18.267 16.9936C18.8937 18.1636 19.2487 19.4986 19.2487 20.9169C19.2487 25.5169 15.5154 29.2502 10.9154 29.2502C6.31536 29.2502 2.58203 25.5169 2.58203 20.9169C2.58203 19.2969 3.04536 17.7836 3.84703 16.5036C4.21203 15.9186 4.98536 15.7419 5.5687 16.1069C6.1537 16.4736 6.33203 17.2452 5.96536 17.8302C5.40536 18.7252 5.08203 19.7836 5.08203 20.9169C5.08203 24.1369 7.69536 26.7502 10.9154 26.7502C14.1354 26.7502 16.7487 24.1369 16.7487 20.9169C16.7487 19.9252 16.5004 18.9902 16.0637 18.1719Z" fill="#131923"/>
<path fill-rule="evenodd" clip-rule="evenodd" d="M17.7317 16.9936C18.0567 16.3852 18.815 16.1552 19.4233 16.4802C20.0317 16.8052 20.2617 17.5636 19.935 18.1719C19.4983 18.9902 19.25 19.9252 19.25 20.9169C19.25 24.1369 21.8633 26.7502 25.0833 26.7502C28.3033 26.7502 30.9167 24.1369 30.9167 20.9169C30.9167 19.7836 30.5933 18.7252 30.0333 17.8302C29.6667 17.2452 29.845 16.4736 30.43 16.1069C31.0133 15.7419 31.7867 15.9186 32.1517 16.5036C32.9533 17.7836 33.4167 19.2969 33.4167 20.9169C33.4167 25.5169 29.6833 29.2502 25.0833 29.2502C20.4833 29.2502 16.75 25.5169 16.75 20.9169C16.75 19.4986 17.105 18.1636 17.7317 16.9936Z" fill="#131923"/>
<path fill-rule="evenodd" clip-rule="evenodd" d="M4.43675 26.1567C4.07342 25.5701 4.25675 24.8001 4.84342 24.4367C5.43008 24.0734 6.20008 24.2568 6.56342 24.8434C6.56342 24.8434 9.54842 29.6984 9.24842 34.7417C9.20675 35.4301 8.61508 35.9551 7.92508 35.9151C7.23675 35.8734 6.71175 35.2817 6.75175 34.5917C7.00842 30.2917 4.43675 26.1567 4.43675 26.1567Z" fill="#131923"/>
<path fill-rule="evenodd" clip-rule="evenodd" d="M29.4367 24.8434C29.8 24.2568 30.57 24.0734 31.1567 24.4367C31.7433 24.8001 31.9267 25.5701 31.5633 26.1567C31.5633 26.1567 28.9917 30.2917 29.2483 34.5917C29.2883 35.2817 28.7633 35.8734 28.075 35.9151C27.385 35.9551 26.7933 35.4301 26.7517 34.7417C26.4517 29.6984 29.4367 24.8434 29.4367 24.8434Z" fill="#131923"/>
<path d="M10.082 24.25C10.7724 24.25 11.332 23.6904 11.332 23C11.332 22.3096 10.7724 21.75 10.082 21.75C9.39168 21.75 8.83203 22.3096 8.83203 23C8.83203 23.6904 9.39168 24.25 10.082 24.25Z" fill="#131923"/>
<path d="M25.9141 24.25C26.6044 24.25 27.1641 23.6904 27.1641 23C27.1641 22.3096 26.6044 21.75 25.9141 21.75C25.2237 21.75 24.6641 22.3096 24.6641 23C24.6641 23.6904 25.2237 24.25 25.9141 24.25Z" fill="#131923"/>
</svg>
