<svg width="33" height="36" viewBox="0 0 33 36" fill="none" xmlns="http://www.w3.org/2000/svg">
<path fill-rule="evenodd" clip-rule="evenodd" d="M21.087 25.7531C21.7757 25.8012 22.295 26.3984 22.247 27.0871L21.7584 34.0871C21.7127 34.7421 21.168 35.2501 20.5114 35.2501H9C8.30964 35.2501 7.75 34.6904 7.75 34.0001C7.75 33.3097 8.30964 32.7501 9 32.7501H19.3456L19.753 26.913C19.8011 26.2243 20.3984 25.705 21.087 25.7531Z" fill="#131923"/>
<path fill-rule="evenodd" clip-rule="evenodd" d="M18.7653 0.812401C19.4213 0.597594 20.1273 0.955208 20.3422 1.61116C20.3422 1.61123 20.3422 1.61129 20.3422 1.61136L20.3434 1.61484L20.3491 1.63213C20.3545 1.64819 20.3629 1.67323 20.3744 1.70679C20.3973 1.77391 20.4323 1.87509 20.4793 2.00668C20.5731 2.26993 20.7146 2.65447 20.9019 3.13127C21.277 4.08595 21.8339 5.40483 22.5593 6.85758M18.7653 0.812401C18.1092 1.02723 17.7515 1.73324 17.9664 2.38932ZM17.9664 2.38932L19.1543 2.00034ZM19.1543 2.00034C17.9664 2.38932 17.9664 2.38944 17.9664 2.38957ZM17.9664 2.38957L17.9665 2.38987ZM17.9665 2.38987L17.9668 2.39065ZM17.9668 2.39065L17.9675 2.39287ZM17.9675 2.39287L17.9699 2.39996ZM17.9699 2.39996L17.9781 2.42457ZM17.9781 2.42457C17.9851 2.44556 17.9952 2.47563 18.0084 2.51434ZM18.0084 2.51434C18.0348 2.59174 18.0736 2.7037 18.1245 2.84653ZM18.1245 2.84653C18.2264 3.13213 18.3771 3.5416 18.575 4.04545ZM18.575 4.04545C18.9705 5.05206 19.5569 6.44102 20.3227 7.97447ZM20.3422 1.61136L20.3422 1.61135ZM20.3422 1.61135L20.3422 1.61116ZM20.3422 1.61116C20.3422 1.61116 20.3422 1.61116 20.3422 1.61116ZM24.8854 12.5841C22.8873 11.5731 21.3027 9.93707 20.3227 7.97448L20.3227 7.97447M22.5593 6.85759C23.3077 8.35621 24.5118 9.59328 26.014 10.3534L26.014 10.3534C28.4195 11.5705 30.2453 13.7533 30.9426 16.3957C30.9451 16.3993 30.968 16.4508 31.0454 16.5654C31.12 16.6758 31.2003 16.7821 31.3022 16.917C31.3433 16.9714 31.388 17.0306 31.4373 17.0965C31.5874 17.2976 31.778 17.5602 31.9299 17.8436C32.0769 18.118 32.2515 18.5259 32.2484 19.0085C32.2422 19.9423 31.6341 20.6344 31.3504 20.9573C31.3455 20.9628 31.3408 20.9682 31.3362 20.9735C31.2746 21.0435 31.2212 21.1033 31.1733 21.1569C31.0712 21.2713 30.9942 21.3575 30.9176 21.4549C30.8278 21.5692 30.8066 21.6178 30.8062 21.6176C30.8061 21.6176 30.8067 21.6161 30.8076 21.6133C29.2038 26.6043 23.5242 29.6206 18.1652 27.6328C17.518 27.3927 17.1879 26.6734 17.428 26.0261C17.6681 25.3789 18.3874 25.0488 19.0347 25.2889C23.0332 26.772 27.2511 24.5093 28.4275 20.8485C28.5549 20.4517 28.7766 20.1333 28.9521 19.91C29.081 19.746 29.2378 19.5705 29.3587 19.4352C29.3956 19.3939 29.4291 19.3564 29.4575 19.324C29.6 19.1617 29.6749 19.0589 29.7135 19.0012C29.6562 18.8993 29.5674 18.7708 29.4341 18.5923C29.4063 18.5551 29.3751 18.5138 29.3417 18.4697C29.2279 18.3191 29.0887 18.1351 28.9736 17.9646C28.8281 17.7491 28.628 17.4253 28.5287 17.0461C28.0228 15.1143 26.6812 13.4927 24.8854 12.5841M29.7606 19.0979C29.7606 19.0979 29.7603 19.0972 29.7599 19.0959Z" fill="#131923"/>
<path fill-rule="evenodd" clip-rule="evenodd" d="M7.62313 1.44787C7.92821 2.06716 7.6735 2.81651 7.05422 3.1216C4.86858 4.19833 3.79985 5.77184 3.24515 7.61118C2.66679 9.52903 2.65111 11.7143 2.65137 14.0001C2.65155 15.6722 2.63428 17.3444 2.61843 18.8793C2.59076 21.5581 2.5674 23.8189 2.64872 24.9323C2.71375 25.8226 2.86202 27.5476 3.0696 29.293C3.22372 30.5889 3.40356 31.8317 3.59373 32.7502H8.18806C8.19281 32.7224 8.19764 32.6941 8.20257 32.6652C8.33017 31.9167 8.52025 30.7932 8.76995 29.2948C9.25202 26.4018 9.32651 24.4877 9.32651 19.5003C9.32651 18.8099 9.88616 18.2503 10.5765 18.2503C11.2669 18.2503 11.8265 18.8099 11.8265 19.5003C11.8265 24.5129 11.7537 26.5987 11.2359 29.7057C10.9857 31.2072 10.7951 32.3338 10.667 33.0853C10.603 33.4611 10.5545 33.7431 10.5221 33.9313L10.4732 34.2136L10.473 34.2148C10.473 34.2148 10.473 34.2149 9.24157 34.0002L10.473 34.2148C10.3687 34.8133 9.84911 35.2502 9.24157 35.2502H2.61656C2.06766 35.2502 1.58299 34.8922 1.42172 34.3675C1.0762 33.2434 0.795658 31.3419 0.587096 29.5882C0.374153 27.7977 0.222541 26.0342 0.155362 25.1144C0.0666954 23.9004 0.0917333 21.4349 0.12004 18.6476C0.135314 17.1435 0.15154 15.5458 0.151367 14.0004L0.151364 13.9768C0.151107 11.768 0.15081 9.21324 0.851625 6.88936C1.57861 4.47872 3.06035 2.30223 5.94941 0.878964C6.56869 0.573879 7.31804 0.828589 7.62313 1.44787Z" fill="#131923"/>
</svg>
