<svg width="96" height="96" viewBox="0 0 96 96" fill="none" xmlns="http://www.w3.org/2000/svg">
<path d="M51.674 2.14695C62.5028 3.01461 72.6752 7.68681 80.3892 15.336C88.1033 22.9852 92.8613 33.1177 93.8204 43.9388" stroke="url(#paint0_linear_1_392)" stroke-width="4" stroke-linecap="round" stroke-linejoin="round" stroke-dasharray="4 8"/>
<mask id="path-2-inside-1_1_392" fill="white">
<path d="M48 1.90871C48 0.854558 47.145 -0.00396236 46.0917 0.0379368C37.267 0.388968 28.6964 3.16915 21.3326 8.08946C13.4391 13.3638 7.28679 20.8603 3.65378 29.6312C0.0207761 38.4021 -0.929784 48.0532 0.922306 57.3643C2.7744 66.6754 7.34595 75.2282 14.0589 81.9411C20.7718 88.654 29.3246 93.2256 38.6357 95.0777C47.9468 96.9298 57.5979 95.9792 66.3688 92.3462C75.1397 88.7132 82.6362 82.5609 87.9105 74.6674C92.8308 67.3036 95.611 58.733 95.9621 49.9083C96.004 48.855 95.1454 48 94.0913 48C93.0371 48 92.1869 48.8551 92.1414 49.9082C91.7926 57.9776 89.2373 65.8106 84.7365 72.5465C79.8816 79.8123 72.9813 85.4753 64.9079 88.8194C56.8346 92.1635 47.951 93.0384 39.3804 91.3336C30.8098 89.6288 22.9372 85.4209 16.7582 79.2418C10.5792 73.0628 6.37117 65.1902 4.66637 56.6196C2.96158 48.049 3.83654 39.1654 7.18062 31.0921C10.5247 23.0187 16.1877 16.1184 23.4535 11.2635C30.1894 6.76273 38.0224 4.2074 46.0918 3.85863C47.1449 3.81311 48 2.96286 48 1.90871Z"/>
</mask>
<path d="M48 1.90871C48 0.854558 47.145 -0.00396236 46.0917 0.0379368C37.267 0.388968 28.6964 3.16915 21.3326 8.08946C13.4391 13.3638 7.28679 20.8603 3.65378 29.6312C0.0207761 38.4021 -0.929784 48.0532 0.922306 57.3643C2.7744 66.6754 7.34595 75.2282 14.0589 81.9411C20.7718 88.654 29.3246 93.2256 38.6357 95.0777C47.9468 96.9298 57.5979 95.9792 66.3688 92.3462C75.1397 88.7132 82.6362 82.5609 87.9105 74.6674C92.8308 67.3036 95.611 58.733 95.9621 49.9083C96.004 48.855 95.1454 48 94.0913 48C93.0371 48 92.1869 48.8551 92.1414 49.9082C91.7926 57.9776 89.2373 65.8106 84.7365 72.5465C79.8816 79.8123 72.9813 85.4753 64.9079 88.8194C56.8346 92.1635 47.951 93.0384 39.3804 91.3336C30.8098 89.6288 22.9372 85.4209 16.7582 79.2418C10.5792 73.0628 6.37117 65.1902 4.66637 56.6196C2.96158 48.049 3.83654 39.1654 7.18062 31.0921C10.5247 23.0187 16.1877 16.1184 23.4535 11.2635C30.1894 6.76273 38.0224 4.2074 46.0918 3.85863C47.1449 3.81311 48 2.96286 48 1.90871Z" fill="white" stroke="url(#paint1_linear_1_392)" stroke-width="8" stroke-linejoin="round" mask="url(#path-2-inside-1_1_392)"/>
<defs>
<linearGradient id="paint0_linear_1_392" x1="17.3333" y1="85.375" x2="80.1042" y2="15.8958" gradientUnits="userSpaceOnUse">
<stop stop-color="#1E78FF"/>
<stop offset="1" stop-color="#78DCCD"/>
</linearGradient>
<linearGradient id="paint1_linear_1_392" x1="16" y1="87" x2="81.5" y2="14.5" gradientUnits="userSpaceOnUse">
<stop stop-color="#1E78FF"/>
<stop offset="1" stop-color="#78DCCD"/>
</linearGradient>
</defs>
</svg>
