<svg width="24" height="24" viewBox="0 0 24 24" fill="none" xmlns="http://www.w3.org/2000/svg">
<path d="M6 11C5.44772 11 5 11.4477 5 12C5 12.5523 5.44772 13 6 13V11ZM8 12V13C8.37877 13 8.72504 12.786 8.89443 12.4472L8 12ZM10 8L10.9138 7.59386C10.7566 7.24025 10.4096 7.00905 10.0227 7.00026C9.63584 6.99147 9.27863 7.20667 9.10557 7.55279L10 8ZM14 17L13.0862 17.4061C13.2495 17.7735 13.6169 18.0074 14.0189 17.9998C14.4208 17.9922 14.7792 17.7447 14.9285 17.3714L14 17ZM16 12V11C15.5911 11 15.2234 11.249 15.0715 11.6286L16 12ZM18 13C18.5523 13 19 12.5523 19 12C19 11.4477 18.5523 11 18 11V13ZM6 13H8V11H6V13ZM8.89443 12.4472L10.8944 8.44721L9.10557 7.55279L7.10557 11.5528L8.89443 12.4472ZM9.08619 8.40614L13.0862 17.4061L14.9138 16.5939L10.9138 7.59386L9.08619 8.40614ZM14.9285 17.3714L16.9285 12.3714L15.0715 11.6286L13.0715 16.6286L14.9285 17.3714ZM16 13H18V11H16V13ZM6 3H18V1H6V3ZM21 6V18H23V6H21ZM18 21H6V23H18V21ZM3 18V6H1V18H3ZM6 21C4.34315 21 3 19.6569 3 18H1C1 20.7614 3.23858 23 6 23V21ZM21 18C21 19.6569 19.6569 21 18 21V23C20.7614 23 23 20.7614 23 18H21ZM18 3C19.6569 3 21 4.34315 21 6H23C23 3.23858 20.7614 1 18 1V3ZM6 1C3.23858 1 1 3.23858 1 6H3C3 4.34315 4.34315 3 6 3V1Z" fill="#78DCCD"/>
</svg>
