<svg width="24" height="24" viewBox="0 0 24 24" fill="none" xmlns="http://www.w3.org/2000/svg">
<ellipse cx="10" cy="17.5" rx="7" ry="3.5" stroke="white" stroke-width="2" stroke-linejoin="round"/>
<ellipse cx="10" cy="17.5" rx="7" ry="3.5" stroke="#78DCCD" stroke-width="2" stroke-linejoin="round"/>
<circle cx="10" cy="7" r="4" stroke="white" stroke-width="2" stroke-linejoin="round"/>
<circle cx="10" cy="7" r="4" stroke="#78DCCD" stroke-width="2" stroke-linejoin="round"/>
<path fill-rule="evenodd" clip-rule="evenodd" d="M15.4121 9.59317C15.1908 10.0542 14.9123 10.4825 14.5859 10.869C15.2384 11.4187 16.0809 11.75 17.0009 11.75C19.0719 11.75 20.7509 10.0711 20.7509 8C20.7509 5.92893 19.0719 4.25 17.0009 4.25C16.462 4.25 15.9497 4.36365 15.4866 4.56829C15.6901 5.02667 15.8378 5.51528 15.9211 6.02553C16.2416 5.84988 16.6096 5.75 17.0009 5.75C18.2435 5.75 19.2509 6.75736 19.2509 8C19.2509 9.24264 18.2435 10.25 17.0009 10.25C16.3807 10.25 15.8191 9.99906 15.4121 9.59317Z" fill="white"/>
<path fill-rule="evenodd" clip-rule="evenodd" d="M15.4121 9.59317C15.1908 10.0542 14.9123 10.4825 14.5859 10.869C15.2384 11.4187 16.0809 11.75 17.0009 11.75C19.0719 11.75 20.7509 10.0711 20.7509 8C20.7509 5.92893 19.0719 4.25 17.0009 4.25C16.462 4.25 15.9497 4.36365 15.4866 4.56829C15.6901 5.02667 15.8378 5.51528 15.9211 6.02553C16.2416 5.84988 16.6096 5.75 17.0009 5.75C18.2435 5.75 19.2509 6.75736 19.2509 8C19.2509 9.24264 18.2435 10.25 17.0009 10.25C16.3807 10.25 15.8191 9.99906 15.4121 9.59317Z" fill="#78DCCD"/>
<path fill-rule="evenodd" clip-rule="evenodd" d="M18.9775 17.8983C18.9089 18.4832 18.6907 19.0427 18.3462 19.5628C19.16 19.4275 19.902 19.2226 20.532 18.9601C21.1291 18.7113 21.6613 18.3959 22.0557 18.0074C22.4527 17.6163 22.7509 17.1064 22.7509 16.5C22.7509 15.8936 22.4527 15.3837 22.0557 14.9926C21.6613 14.6041 21.1291 14.2887 20.532 14.0399C19.3344 13.5409 17.732 13.25 16.0009 13.25C15.9068 13.25 15.813 13.2509 15.7197 13.2526C16.6166 13.7041 17.368 14.2597 17.9244 14.8891C18.7092 15.007 19.4007 15.1936 19.955 15.4245C20.4437 15.6281 20.7902 15.8515 21.003 16.0612C21.2132 16.2683 21.2509 16.4161 21.2509 16.5C21.2509 16.5839 21.2132 16.7317 21.003 16.9388C20.7902 17.1485 20.4437 17.3719 19.955 17.5755C19.6647 17.6964 19.3368 17.8052 18.9775 17.8983Z" fill="white"/>
<path fill-rule="evenodd" clip-rule="evenodd" d="M18.9775 17.8983C18.9089 18.4832 18.6907 19.0427 18.3462 19.5628C19.16 19.4275 19.902 19.2226 20.532 18.9601C21.1291 18.7113 21.6613 18.3959 22.0557 18.0074C22.4527 17.6163 22.7509 17.1064 22.7509 16.5C22.7509 15.8936 22.4527 15.3837 22.0557 14.9926C21.6613 14.6041 21.1291 14.2887 20.532 14.0399C19.3344 13.5409 17.732 13.25 16.0009 13.25C15.9068 13.25 15.813 13.2509 15.7197 13.2526C16.6166 13.7041 17.368 14.2597 17.9244 14.8891C18.7092 15.007 19.4007 15.1936 19.955 15.4245C20.4437 15.6281 20.7902 15.8515 21.003 16.0612C21.2132 16.2683 21.2509 16.4161 21.2509 16.5C21.2509 16.5839 21.2132 16.7317 21.003 16.9388C20.7902 17.1485 20.4437 17.3719 19.955 17.5755C19.6647 17.6964 19.3368 17.8052 18.9775 17.8983Z" fill="#78DCCD"/>
</svg>
