<svg width="24" height="24" viewBox="0 0 24 24" fill="none" xmlns="http://www.w3.org/2000/svg">
<path d="M7.52461 22.5006C6.00416 19.9495 6.59745 17.1137 6.72355 16.6791C8.3713 11.0077 15.7478 9.40378 17.8195 1.49812C16.3607 0.692146 14.7501 0.198523 13.0901 0.0486622C11.4301 -0.101199 9.75707 0.0959823 8.17746 0.62766C6.59784 1.15934 5.14623 2.01387 3.91498 3.13689C2.68373 4.25991 1.6998 5.62683 1.02578 7.15067C0.351773 8.67451 0.00244026 10.3219 1.27392e-05 11.9881C-0.00241478 13.6542 0.342116 15.3026 1.01168 16.8284C1.68125 18.3542 2.6612 19.724 3.88917 20.8506C5.11715 21.9772 6.56626 22.836 8.14432 23.3722C7.91507 23.0985 7.70785 22.8071 7.52461 22.5006Z" fill="#78DCCD"/>
<path d="M6.7238 16.6769C6.5977 17.1115 6.00321 19.9472 7.52486 22.4984C7.70799 22.8056 7.91521 23.0979 8.14457 23.3724C9.38283 23.7896 10.681 24.0017 11.9877 24.0003C12.6423 24 13.2957 23.947 13.9417 23.8418C12.9053 23.3736 11.888 22.6593 11.1566 21.5607C9.94725 19.7455 10.1406 17.7334 10.179 17.3336C10.7039 12.0163 17.0727 9.9946 18.7349 2.06133C18.4394 1.85964 18.1344 1.67155 17.8197 1.49707C15.748 9.40393 8.37155 11.0079 6.7238 16.6769Z" fill="white"/>
<path d="M11.1549 21.5609C11.8863 22.6582 12.9036 23.3726 13.94 23.842C16.3101 23.452 18.5088 22.3606 20.2521 20.7087C21.9953 19.0568 23.2029 16.9203 23.719 14.5752C24.2351 12.2301 24.0359 9.78426 23.1471 7.55354C22.2583 5.32282 20.7208 3.40977 18.7332 2.06152C17.071 9.99479 10.7022 12.0165 10.1773 17.3338C10.1389 17.7336 9.94435 19.7457 11.1549 21.5609Z" fill="#1E78FF"/>
</svg>
