<svg width="328" height="120" viewBox="0 0 328 120" fill="none" xmlns="http://www.w3.org/2000/svg">
<g clip-path="url(#clip0_358_729)">
<path d="M141.702 112.506C134.106 99.7558 137.07 85.5838 137.7 83.4118C145.932 55.0678 182.784 47.0518 193.134 7.54184C185.846 3.51382 177.799 1.04685 169.506 0.297886C161.213 -0.451073 152.855 0.534377 144.963 3.19154C137.071 5.8487 129.819 10.1194 123.668 15.7319C117.517 21.3444 112.601 28.1758 109.234 35.7915C105.867 43.4072 104.122 51.6404 104.109 59.9673C104.097 68.2942 105.819 76.5325 109.164 84.1579C112.509 91.7834 117.404 98.6291 123.539 104.26C129.674 109.89 136.914 114.182 144.798 116.862C143.652 115.494 142.617 114.037 141.702 112.506Z" fill="#78DCCD"/>
<path d="M137.698 83.4004C137.068 85.5724 134.098 99.7444 141.7 112.494C142.615 114.03 143.652 115.49 144.798 116.862C150.984 118.947 157.468 120.008 163.996 120C167.266 119.999 170.531 119.734 173.758 119.208C168.58 116.868 163.498 113.298 159.844 107.808C153.802 98.7364 154.768 88.6804 154.96 86.6824C157.582 60.1084 189.4 50.0044 197.704 10.3564C196.228 9.34838 194.704 8.40838 193.132 7.53638C182.782 47.0524 145.93 55.0684 137.698 83.4004Z" fill="white"/>
<path d="M159.841 107.814C163.495 113.298 168.577 116.868 173.755 119.214C185.596 117.265 196.58 111.811 205.289 103.555C213.998 95.2993 220.031 84.6217 222.61 72.9018C225.188 61.1819 224.192 48.9581 219.752 37.8097C215.312 26.6613 207.631 17.1004 197.701 10.3623C189.397 50.0103 157.579 60.1143 154.957 86.6883C154.765 88.6863 153.793 98.7423 159.841 107.814Z" fill="#1E78FF"/>
</g>
<path d="M58.6667 120V92.766H0V84.9362L60.3622 0H69.0096V83.9149H88V92.766H69.0096V120H58.6667ZM58.6667 83.9149V12.4255H62.2274L9.49518 86.6383V83.9149H58.6667Z" fill="#131923"/>
<path d="M298.667 120V92.766H240V84.9362L300.362 0H309.01V83.9149H328V92.766H309.01V120H298.667ZM298.667 83.9149V12.4255H302.227L249.495 86.6383V83.9149H298.667Z" fill="#131923"/>
<defs>
<clipPath id="clip0_358_729">
<rect width="120" height="120" fill="white" transform="translate(104)"/>
</clipPath>
</defs>
</svg>
