<svg width="128" height="32" viewBox="0 0 128 32" fill="none" xmlns="http://www.w3.org/2000/svg">
<g clip-path="url(#clip0_133_385)">
<path d="M52.2313 9.52407H53.5152V14.4175H50.3781V12.1141H43.7211V14.4175H40.584V9.52407H40.9761C41.5928 9.52407 42.0355 9.40561 42.2806 9.1575C42.5257 8.90939 42.6522 8.48199 42.6522 7.85611V1.10742H52.2313V9.52407ZM49.0941 9.52407V3.69741H45.7894V8.74931C45.7938 9.00927 45.771 9.26897 45.7214 9.52407H49.0941Z" fill="white"/>
<path d="M56.1687 2.43767C57.2881 1.5102 58.6926 1.00797 60.1391 1.01783C61.5775 1.00476 62.9741 1.50778 64.0811 2.43767C65.169 3.35009 65.8647 4.84998 65.8647 6.59958C65.8647 8.34918 65.169 9.86507 64.0811 10.7775C62.9741 11.7074 61.5775 12.2104 60.1391 12.1973C58.6915 12.2038 57.2872 11.6982 56.1687 10.7679C55.0998 9.84586 54.3945 8.34597 54.3945 6.60598C54.3945 4.86598 55.0998 3.35009 56.1687 2.44408M61.9828 8.74936C62.4936 8.15756 62.7632 7.39141 62.737 6.60598C62.7614 5.82663 62.4917 5.06714 61.9828 4.48181C61.753 4.21385 61.4691 3.99897 61.1502 3.85171C60.8313 3.70445 60.4849 3.62824 60.1344 3.62824C59.7838 3.62824 59.4374 3.70445 59.1185 3.85171C58.7996 3.99897 58.5157 4.21385 58.2859 4.48181C57.777 5.06714 57.5074 5.82663 57.5317 6.60598C57.5055 7.39141 57.7751 8.15756 58.2859 8.74936C58.5174 9.01454 58.8019 9.22689 59.1206 9.37233C59.4392 9.51777 59.7848 9.59298 60.1344 9.59298C60.4839 9.59298 60.8295 9.51777 61.1482 9.37233C61.4668 9.22689 61.7513 9.01454 61.9828 8.74936Z" fill="white"/>
<path d="M78.6869 1.10742L74.1378 6.5371L78.6869 12.114H75.0596L70.686 6.58673V12.114H67.5488V1.10742H70.686V6.48748L75.0391 1.10742H78.6869Z" fill="white"/>
<path d="M90.3805 1.10742V3.6974H86.5776V12.114H83.4389V3.6974H79.625V1.10742H90.3805Z" fill="white"/>
<path d="M92.9526 2.43768C94.0732 1.50891 95.4796 1.00657 96.9278 1.01783C98.3658 1.00473 99.7618 1.50777 100.868 2.43768C101.958 3.35009 102.653 4.84998 102.653 6.59958C102.653 8.34918 101.958 9.86507 100.868 10.7775C99.7627 11.7097 98.3666 12.215 96.9278 12.2037C95.4802 12.2105 94.0757 11.7049 92.9574 10.7743C91.8885 9.85226 91.1816 8.35238 91.1816 6.61238C91.1816 4.87239 91.8885 3.3565 92.9574 2.45048M98.7699 8.76217C99.282 8.17102 99.5522 7.40456 99.5257 6.61879C99.5522 5.83409 99.2799 5.06909 98.7652 4.48181C98.5356 4.21388 98.2518 3.99902 97.933 3.85177C97.6142 3.70452 97.2679 3.62832 96.9175 3.62832C96.5671 3.62832 96.2208 3.70452 95.9021 3.85177C95.5833 3.99902 95.2995 4.21388 95.0699 4.48181C94.5606 5.06698 94.2903 5.82644 94.314 6.60598C94.2883 7.39162 94.5585 8.1578 95.0699 8.74936C95.3012 9.0145 95.5856 9.22683 95.9041 9.37226C96.2226 9.51769 96.5681 9.59289 96.9175 9.59289C97.267 9.59289 97.6124 9.51769 97.931 9.37226C98.2495 9.22683 98.5339 9.0145 98.7652 8.74936" fill="white"/>
<path d="M107.462 10.9134V17.017H104.334V1.10729H107.462V2.33825C108.137 1.50427 109.275 1.01765 110.422 1.01765C111.804 1.01072 113.139 1.52421 114.168 2.45831C115.176 3.37232 115.814 4.8594 115.814 6.6074C115.814 8.31378 115.181 9.80886 114.168 10.7469C113.14 11.6859 111.806 12.2056 110.422 12.2052C109.867 12.2078 109.318 12.0946 108.809 11.8726C108.299 11.6506 107.841 11.3246 107.462 10.915M110.088 3.64925C109.739 3.64724 109.394 3.72159 109.076 3.86718C108.758 4.01278 108.475 4.2262 108.246 4.49283C107.724 5.06783 107.446 5.82704 107.471 6.6074C107.446 7.39062 107.724 8.15281 108.246 8.73157C108.475 8.9982 108.758 9.21162 109.076 9.35722C109.394 9.50282 109.739 9.57716 110.088 9.57516C110.435 9.57903 110.778 9.50545 111.093 9.35963C111.409 9.21382 111.689 8.99937 111.913 8.73157C112.427 8.14914 112.701 7.38849 112.677 6.6074C112.7 5.8293 112.427 5.07189 111.913 4.49283C111.689 4.22504 111.409 4.01059 111.093 3.86477C110.778 3.71896 110.435 3.64537 110.088 3.64925Z" fill="white"/>
<path d="M51.6826 19.9004V30.907H48.5454V22.4904H43.7211V30.907H40.584V19.9004H51.6826Z" fill="white"/>
<path d="M64.5282 19.9004V30.907H61.3895V22.4904H58.0863V27.5423C58.0863 29.7833 56.4814 30.9038 53.2715 30.9038V28.317C53.8897 28.317 54.3309 28.197 54.576 27.9489C54.8211 27.7008 54.9492 27.275 54.9492 26.6491V19.9004H64.5282Z" fill="white"/>
<path d="M74.5919 21.0909V19.9H77.729V30.9066H74.5919V29.6756C74.2172 30.0906 73.7615 30.4222 73.2536 30.6496C72.7457 30.8769 72.1966 30.9949 71.6413 30.9962C70.2542 30.9969 68.9161 30.4767 67.8859 29.5364C66.8771 28.5935 66.2383 27.1049 66.2383 25.3985C66.2383 23.6505 66.8708 22.1618 67.8859 21.2494C68.9171 20.3129 70.2561 19.7992 71.6413 19.8087C72.7877 19.8087 73.9262 20.2649 74.5919 21.0893M71.9655 28.3646C72.3144 28.3666 72.6597 28.2923 72.9776 28.1467C73.2956 28.0011 73.5787 27.7877 73.8076 27.521C74.3075 26.9309 74.5823 26.1791 74.5823 25.4017C74.5823 24.6243 74.3075 23.8725 73.8076 23.2823C73.5787 23.0157 73.2956 22.8023 72.9776 22.6567C72.6597 22.5111 72.3144 22.4367 71.9655 22.4387C71.6175 22.4356 71.273 22.5095 70.9562 22.6552C70.6394 22.8009 70.3578 23.015 70.1312 23.2823C69.6438 23.8783 69.377 24.6279 69.377 25.4017C69.377 26.1755 69.6438 26.925 70.1312 27.521C70.3578 27.7884 70.6394 28.0024 70.9562 28.1481C71.273 28.2938 71.6175 28.3677 71.9655 28.3646Z" fill="white"/>
<path d="M87.4716 26.7483L90.3542 27.84C89.9285 28.8253 89.1945 29.6415 88.2654 30.1627C87.1621 30.7923 85.8976 31.0722 84.6354 30.966C83.3733 30.8599 82.1717 30.3726 81.1862 29.5672C80.1189 28.6532 79.4121 27.1549 79.4121 25.4053C79.4121 23.6557 80.1189 22.1494 81.1862 21.2434C82.1725 20.4397 83.3739 19.9534 84.6356 19.8472C85.8974 19.7411 87.1616 20.02 88.2654 20.6479C89.1945 21.1691 89.9285 21.9853 90.3542 22.9706L87.4716 24.0735C87.0399 23.0698 86.1671 22.436 85.1583 22.436C84.8064 22.4312 84.4578 22.5052 84.1374 22.6527C83.817 22.8002 83.5328 23.0175 83.3051 23.2891C82.8164 23.8883 82.5491 24.6411 82.5491 25.4181C82.5491 26.1951 82.8164 26.9479 83.3051 27.5471C83.5336 27.8171 83.8182 28.0327 84.1385 28.1786C84.4589 28.3244 84.8071 28.3968 85.1583 28.3907C86.1671 28.3907 87.0399 27.7648 87.4716 26.7627" fill="white"/>
<path d="M102.189 19.9004V22.4904H98.3846V30.907H95.2475V22.4904H91.4336V19.9004H102.189Z" fill="white"/>
<path d="M103.537 19.9004H106.665V26.132H106.742L111.105 19.9004H113.821V30.907H110.694V24.6642H110.605L106.252 30.907H103.537V19.9004Z" fill="white"/>
<path d="M127.234 19.9004L122.685 25.3285L127.234 30.907H123.606L119.233 25.3781V30.907H116.096V19.9004H119.233V25.2788L123.586 19.9004H127.234Z" fill="white"/>
<path d="M9.9362 30.0153C7.93438 26.6138 8.7155 22.8328 8.88153 22.2534C11.051 14.6915 20.7628 12.5529 23.4904 2.01213C21.5698 0.937504 19.4493 0.279345 17.2637 0.079531C15.0782 -0.120283 12.8755 0.142624 10.7957 0.851524C8.71602 1.56042 6.80483 2.6998 5.18376 4.19715C3.5627 5.6945 2.26725 7.51704 1.37985 9.54882C0.492441 11.5806 0.0325097 13.7771 0.0293136 15.9987C0.0261176 18.2202 0.479727 20.418 1.36128 22.4524C2.24284 24.4868 3.53303 26.3132 5.14978 27.8153C6.76653 29.3174 8.67444 30.4624 10.7521 31.1775C10.4503 30.8125 10.1775 30.4239 9.9362 30.0153Z" fill="#78DCCD"/>
<path d="M8.88131 22.2504C8.71528 22.8299 7.93258 26.6108 9.93598 30.0123C10.1771 30.422 10.4499 30.8117 10.7519 31.1777C12.3822 31.734 14.0914 32.0168 15.8118 32.0148C16.6736 32.0145 17.5339 31.9439 18.3844 31.8036C17.0198 31.1793 15.6806 30.2268 14.7176 28.7622C13.1253 26.3419 13.3799 23.659 13.4305 23.126C14.1215 16.0363 22.5067 13.3407 24.6951 2.76309C24.3061 2.49416 23.9045 2.24338 23.4902 2.01074C20.7626 12.5532 11.0507 14.6917 8.88131 22.2504Z" fill="#131923"/>
<path d="M14.7176 28.7637C15.6806 30.2268 17.0199 31.1792 18.3845 31.8051C21.505 31.2852 24.3998 29.8299 26.6949 27.6274C28.99 25.4249 30.58 22.5762 31.2595 19.4495C31.939 16.3227 31.6767 13.0616 30.5065 10.0873C29.3363 7.11302 27.312 4.5623 24.6951 2.76465C22.5067 13.3423 14.1215 16.0379 13.4305 23.1276C13.3799 23.6606 13.1238 26.3434 14.7176 28.7637Z" fill="#1E78FF"/>
</g>
<defs>
<clipPath id="clip0_133_385">
<rect width="128" height="32" fill="white"/>
</clipPath>
</defs>
</svg>
